<?xml version="1.0" ?><svg data-name="Layer 1" id="Layer_1" viewBox="0 0 64 64" xmlns="http://www.w3.org/2000/svg"><defs><style>.cls-1{fill:#fedb41;}.cls-2{fill:#002849;}</style></defs><title/><path d="M32,2V62A30,30,0,0,0,32,2Z"/><path class="cls-1" d="M32,62V2a30,30,0,0,0,0,60Z"/><path class="cls-2" d="M32,1A30.94,30.94,0,0,0,15.84,5.54a1,1,0,1,0,1,1.71A28.93,28.93,0,0,1,31,3V61a28.89,28.89,0,0,1-8.84-1.7,1,1,0,1,0-.68,1.88A31,31,0,1,0,32,1Z"/><path class="cls-2" d="M16.5,58.85a1,1,0,1,0,1-1.73,29,29,0,0,1-4.74-46.82,1,1,0,1,0-1.33-1.5,31,31,0,0,0,5.07,50Z"/></svg>