<?xml version="1.0" ?><svg id="Layer_1" style="enable-background:new 0 0 64 64;" version="1.1" viewBox="0 0 64 64" xml:space="preserve" xmlns="http://www.w3.org/2000/svg" xmlns:xlink="http://www.w3.org/1999/xlink"><g><path d="M63.60581,11.91337c-0.14001-0.52002-0.48999-0.92999-0.97003-1.15002c-0.47998-0.20996-1.02997-0.19-1.51001,0.06   c-5.91525,3.14975-12.40832,4.89864-19.04999,4.61005c-0.06-0.71002-0.16998-1.35004-0.32001-1.91003   c-0.27056-1.0614-1.45693-1.61761-2.46997-1.08997c-1.46002,0.77997-2.92999,1.45996-4.40002,2.02997   c-3.38-0.77997-6.81-2.01996-10.27997-3.70996c-0.94724-0.44343-2.09548,0.02595-2.40002,1.06995   c-0.37,1.31-0.45001,3.11005-0.27997,5.24005c-6.17004,0.07996-12.61005-1.5-19.17004-4.69   c-0.45996-0.23004-1-0.23004-1.45996-0.02002c-0.46002,0.21002-0.79999,0.60999-0.92999,1.08002   c-1.74005,6.20996,2.94,23.78998,10.12,33.25c3.38995,4.46997,6.94,6.72998,10.63,6.72998c0.00995,0,0.00995,0,0.00995,0   c4.09003-0.29999,8.08002-3.01001,11.58002-7.88c3.26001,4.16003,6.70001,6.27002,10.26001,6.27002   c4.40997-0.32001,8.69-3.45001,12.38-9.04004C61.32082,33.75153,65.29948,18.28583,63.60581,11.91337z M47.00577,39.85337   c-2-2-5.13-2.26001-7.42999-0.62l-1.15997-1.63c3.09998-2.21002,7.31-1.85999,10,0.84003L47.00577,39.85337z M47.27579,27.0034   l-1.40997-1.41003c2.76996-2.77997,7.27997-2.77997,10.06,0l-1.42004,1.41003   C52.51578,25.01334,49.27579,25.01334,47.27579,27.0034z M21.05582,51.41337c-3.69,0-6.92004-3.22998-8.98004-5.94   c-7.07996-9.34003-11.04999-25.65997-9.87-31.15002c6.79999,3.26001,13.5,4.85004,19.94,4.74005   c5.8471,0,12.48448-1.89124,17.76001-4.69c1.34718,6.28638-2.95096,21.98407-8.46002,29.45996   C29.10581,47.24339,25.49582,51.09336,21.05582,51.41337z"/><path d="M18.08353,27.21842c-1.33984-1.33936-3.125-2.08105-5.03564-2.08887c-1.90234,0.0083-3.6875,0.75-5.02686,2.08887   l1.41406,1.41406c0.96387-0.96289,2.25-1.49707,3.61328-1.50293c1.37109,0.00537,2.65723,0.53955,3.62109,1.50293   L18.08353,27.21842z"/><path d="M34.07865,27.21842c-2.77441-2.77441-7.28809-2.77441-10.0625,0l1.41406,1.41406   c1.99512-1.99414,5.23926-1.99414,7.23438,0L34.07865,27.21842z"/><path d="M20.25443,41.75895c-1.49854-0.1377-2.96973-1.35547-4.37256-3.61963l-1.7002,1.05371   c1.77588,2.86572,3.70215,4.35645,5.88965,4.55762c0.16553,0.01514,0.33105,0.02246,0.49756,0.02246   c2.24805,0,4.60693-1.38916,7.19141-4.23096l-1.47949-1.3457C23.9888,40.71647,21.96488,41.91373,20.25443,41.75895z"/></g></svg>